<svg viewBox="0 0 25 25" xmlns="http://www.w3.org/2000/svg">
<path d="M17.7812 0.637207H7.46875C5.72887 0.639178 4.06082 1.33121 2.83054 2.5615C1.60026 3.79178 0.90822 5.45983 0.90625 7.19971V17.5122C0.90822 19.2521 1.60026 20.9201 2.83054 22.1504C4.06082 23.3807 5.72887 24.0727 7.46875 24.0747H17.7812C19.5211 24.0727 21.1892 23.3807 22.4195 22.1504C23.6497 20.9201 24.3418 19.2521 24.3438 17.5122V7.19971C24.3418 5.45983 23.6497 3.79178 22.4195 2.5615C21.1892 1.33121 19.5211 0.639178 17.7812 0.637207ZM12.625 17.981C11.5125 17.981 10.4249 17.6511 9.49992 17.033C8.57489 16.4149 7.85392 15.5364 7.42818 14.5086C7.00244 13.4807 6.89104 12.3497 7.10808 11.2586C7.32513 10.1674 7.86085 9.16515 8.64752 8.37848C9.43419 7.59181 10.4365 7.05608 11.5276 6.83904C12.6188 6.622 13.7498 6.73339 14.7776 7.15913C15.8054 7.58488 16.6839 8.30585 17.302 9.23087C17.9201 10.1559 18.25 11.2434 18.25 12.356C18.2483 13.8473 17.6551 15.277 16.6006 16.3316C15.5461 17.3861 14.1163 17.9793 12.625 17.981ZM18.7188 7.66846C18.4406 7.66846 18.1687 7.58598 17.9375 7.43146C17.7062 7.27694 17.526 7.05731 17.4195 6.80036C17.3131 6.5434 17.2853 6.26065 17.3395 5.98786C17.3938 5.71508 17.5277 5.46451 17.7244 5.26784C17.921 5.07117 18.1716 4.93724 18.4444 4.88298C18.7172 4.82872 18.9999 4.85657 19.2569 4.963C19.5139 5.06944 19.7335 5.24968 19.888 5.48094C20.0425 5.71219 20.125 5.98408 20.125 6.26221C20.125 6.63517 19.9768 6.99285 19.7131 7.25658C19.4494 7.5203 19.0917 7.66846 18.7188 7.66846Z"/>
</svg>
