<svg width="116" height="116" viewBox="0 0 116 116" fill="none" xmlns="http://www.w3.org/2000/svg"><path d="M102.439 66.119l6.08.694-4.715-3.604.063-.548 5.381-2.432-6.043-.702.132-1.144 8.344.97-.113.977-6.269 2.8 5.466 4.113-.114.978-8.345-.958.133-1.144zm-1.682 9.409l-.991-.327 1.903-5.79 7.98 2.622-1.851 5.632-.992-.326 1.477-4.492-2.451-.805-1.316 4.001-.969-.318 1.316-4.002-2.577-.847-1.529 4.651zm2.469 11.119l-7.37-4.03.576-1.053 3.285 1.796 2.315-4.232-3.285-1.797.575-1.053 7.37 4.03-.575 1.053-3.17-1.733-2.314 4.233 3.169 1.733-.576 1.053zm-6.569 8.38c-.544.598-1.173 1.01-1.887 1.236a3.961 3.961 0 01-2.162.094c-.732-.158-1.4-.512-2.004-1.06-.603-.55-1.021-1.184-1.254-1.904a4.07 4.07 0 01-.11-2.16c.164-.728.517-1.39 1.061-1.988a4.299 4.299 0 011.745-1.187 4.077 4.077 0 012.012-.197 4.23 4.23 0 011.916.819l1.034-1.137-2.752-2.503.8-.879 6.213 5.653-.799.879-2.663-2.423-1.042 1.145a4.24 4.24 0 01.935 1.808c.15.667.137 1.33-.042 1.99a4.262 4.262 0 01-1.001 1.814zM91.1 89.972a3.028 3.028 0 00-.748 1.428 2.94 2.94 0 00.11 1.592c.177.53.494 1.002.95 1.416a3.33 3.33 0 001.5.813 2.858 2.858 0 001.585-.05c.52-.154.973-.445 1.36-.87.383-.42.627-.897.732-1.428a2.966 2.966 0 00-.1-1.584 3.422 3.422 0 00-.959-1.407c-.456-.415-.953-.689-1.491-.822a3.056 3.056 0 00-1.595.041c-.514.16-.962.45-1.344.871zm-16.448 10.059l2.685 5.499.502-5.914.496-.241 4.944 3.228-2.659-5.472 1.037-.504 3.67 7.556-.885.43-5.731-3.779-.529 6.82-.885.43-3.682-7.55 1.037-.503zm-8.784 3.634l-.261-1.011 5.901-1.527 2.105 8.132-5.739 1.485-.261-1.01 4.577-1.185-.647-2.498-4.077 1.056-.256-.988 4.078-1.055-.68-2.626-4.74 1.227zm-7.952 8.074l-.615-8.378 1.196-.088.275 3.734 4.81-.353-.273-3.734 1.196-.088.615 8.378-1.196.087-.265-3.602-4.811.353.264 3.603-1.196.088zm-10.838-1.037c-.796-.136-1.482-.444-2.057-.924a3.96 3.96 0 01-1.243-1.771c-.262-.702-.324-1.455-.186-2.26.137-.804.447-1.498.928-2.081a4.066 4.066 0 011.76-1.257c.701-.254 1.45-.312 2.247-.176a4.301 4.301 0 011.94.831c.551.427.968.957 1.25 1.589a4.25 4.25 0 01.342 2.055l1.514.259.627-3.667 1.17.201-1.415 8.279-1.17-.2.606-3.548-1.526-.261a4.236 4.236 0 01-1.02 1.761 4.076 4.076 0 01-1.698 1.037 4.261 4.261 0 01-2.069.133zm1.267-7.405a3.027 3.027 0 00-1.607.14 2.94 2.94 0 00-1.282.949c-.35.435-.578.956-.681 1.564a3.343 3.343 0 00.123 1.701c.177.525.476.962.896 1.31.41.354.899.579 1.467.676a2.93 2.93 0 001.596-.153c.503-.19.93-.502 1.28-.937.343-.437.566-.959.67-1.566.104-.607.067-1.173-.111-1.699a3.062 3.062 0 00-.894-1.322 3.01 3.01 0 00-1.457-.663zM31.08 94.824l-3.198 5.217 5.259-2.75.47.29-.07 5.903 3.19-5.18.98.604-4.404 7.152-.838-.516.112-6.864-6.038 3.215-.838-.516 4.395-7.16.98.605zm-7.78-5.468l.714-.762 4.45 4.168-5.743 6.13-4.326-4.052.713-.762 3.451 3.232 1.764-1.883-3.074-2.88.697-.744 3.074 2.88 1.854-1.98-3.573-3.347zm-11.087-2.348l6.738-5.016.716.963-3.003 2.235 2.88 3.87 3.004-2.235.716.962-6.738 5.016-.717-.963 2.898-2.157-2.88-3.87-2.898 2.157-.716-.962zm-4.866-9.473c-.315-.744-.425-1.488-.331-2.231.086-.74.36-1.408.82-2.002.451-.6 1.052-1.057 1.804-1.375.751-.318 1.502-.432 2.253-.34.74.086 1.41.354 2.008.804.592.454 1.045 1.053 1.36 1.797.292.692.408 1.386.346 2.081a4.077 4.077 0 01-.665 1.91 4.232 4.232 0 01-1.546 1.397l.598 1.414 3.427-1.449.462 1.094-7.736 3.273-.463-1.095L13 81.411l-.603-1.426a4.24 4.24 0 01-2.033.091 4.077 4.077 0 01-1.79-.871 4.262 4.262 0 01-1.227-1.67zm6.919-2.926a3.027 3.027 0 00-.984-1.278 2.942 2.942 0 00-1.49-.568 3.343 3.343 0 00-1.685.269c-.567.24-1.023.58-1.366 1.02a2.862 2.862 0 00-.62 1.462 2.96 2.96 0 00.22 1.6c.222.523.552.944.99 1.262a2.97 2.97 0 001.48.573 3.424 3.424 0 001.68-.28 3.425 3.425 0 001.371-1.01c.344-.44.554-.93.631-1.466a3.003 3.003 0 00-.227-1.584zm-2.212-19.095l-6.119.13 5.158 2.938.01.551L6.1 62.267l6.083-.118.022 1.152-8.398.162-.02-.984 5.836-3.617-5.97-3.341-.019-.984 8.398-.174.023 1.151zm.424-9.748l1.026.191-1.12 5.993-8.256-1.543 1.088-5.827 1.026.192-.868 4.648 2.536.473.774-4.14 1.002.187-.773 4.14 2.666.498.899-4.812zm-4.05-10.421l7.854 2.98-.426 1.122-3.5-1.328-1.712 4.51 3.5 1.328-.425 1.122-7.854-2.98.426-1.122 3.377 1.282 1.711-4.51-3.377-1.282.426-1.122zm5.35-9.199c.458-.665 1.026-1.158 1.703-1.478a3.961 3.961 0 012.13-.383c.747.058 1.456.318 2.128.781.672.463 1.171 1.035 1.498 1.717.325.67.458 1.38.4 2.127-.064.742-.326 1.446-.784 2.111a4.28 4.28 0 01-1.57 1.41 4.077 4.077 0 01-1.967.467 4.23 4.23 0 01-2.009-.554l-.871 1.265 3.063 2.11-.674.98-6.917-4.767.674-.978 2.964 2.042.879-1.274a4.239 4.239 0 01-1.17-1.666 4.076 4.076 0 01-.226-1.977 4.262 4.262 0 01.749-1.933zm6.185 4.262c.327-.474.51-.98.55-1.516a2.94 2.94 0 00-.323-1.562 3.342 3.342 0 00-1.132-1.276 3.342 3.342 0 00-1.595-.603 2.857 2.857 0 00-1.565.262 2.96 2.96 0 00-1.231 1.046c-.322.468-.5.972-.533 1.513a2.965 2.965 0 00.313 1.556c.252.494.632.916 1.139 1.266s1.037.554 1.588.613a3.056 3.056 0 001.575-.255 3.004 3.004 0 001.215-1.044zm14.895-12.223l-3.408-5.083.306 5.927-.459.307-5.336-2.526 3.378 5.06-.958.64-4.664-6.987.818-.546 6.192 2.965-.404-6.83.819-.546 4.674 6.98-.958.64zm8.11-4.788l.396.966-5.64 2.312-3.186-7.773 5.486-2.248.395.966-4.374 1.793.978 2.387 3.897-1.597.387.944-3.897 1.597 1.028 2.51 4.53-1.857zm6.769-9.119l1.731 8.22-1.174.247-.771-3.664-4.72.995.77 3.663-1.174.247-1.73-8.22 1.174-.246.744 3.534 4.72-.994-.744-3.535 1.174-.247zm10.87-.489c.808.028 1.529.241 2.163.64a3.96 3.96 0 011.47 1.588c.353.66.516 1.398.487 2.214-.028.815-.241 1.544-.64 2.187a4.07 4.07 0 01-1.576 1.482c-.66.345-1.395.504-2.202.476a4.296 4.296 0 01-2.034-.563 4.076 4.076 0 01-1.452-1.407 4.23 4.23 0 01-.615-1.991l-1.535-.053-.13 3.717-1.187-.04.292-8.396 1.187.042-.125 3.597 1.547.054a4.24 4.24 0 01.774-1.882 4.076 4.076 0 011.545-1.255 4.261 4.261 0 012.031-.41zm-.26 7.508c.575.02 1.1-.098 1.572-.354a2.94 2.94 0 001.144-1.113 3.343 3.343 0 00.465-1.64 3.344 3.344 0 00-.35-1.67 2.857 2.857 0 00-1.064-1.178 2.96 2.96 0 00-1.544-.474 2.938 2.938 0 00-1.562.366 2.966 2.966 0 00-1.143 1.101 3.431 3.431 0 00-.453 1.642 3.415 3.415 0 00.338 1.668c.255.498.61.894 1.063 1.19a3 3 0 001.533.461zm18.549 6.077l2.478-5.596-4.848 3.425-.504-.225-.715-5.861-2.474 5.558-1.052-.468 3.416-7.674.899.4.8 6.819 5.558-3.989.9.4-3.406 7.68-1.052-.47zm8.363 4.309l-.605.851-4.969-3.531 4.867-6.847 4.831 3.434-.604.851-3.854-2.739-1.495 2.103 3.433 2.44-.59.832-3.434-2.44-1.57 2.21 3.99 2.836zm11.288.805l-6.004 5.875-.84-.858 2.677-2.618-3.374-3.448-2.676 2.618-.84-.858 6.005-5.874.84.857-2.583 2.527 3.374 3.448 2.582-2.526.84.857zm6.217 8.88c.411.696.619 1.418.625 2.167a3.956 3.956 0 01-.548 2.094c-.366.653-.901 1.187-1.603 1.602-.703.415-1.432.628-2.188.638a4.073 4.073 0 01-2.098-.531c-.646-.37-1.175-.904-1.586-1.6a4.296 4.296 0 01-.62-2.017 4.078 4.078 0 01.404-1.98 4.223 4.223 0 011.347-1.59l-.781-1.323-3.203 1.892-.604-1.023 7.232-4.273.604 1.023-3.1 1.831.788 1.333a4.24 4.24 0 012.003-.36 4.08 4.08 0 011.889.625 4.267 4.267 0 011.439 1.492zm-6.468 3.82c.293.497.674.875 1.145 1.137.48.264.999.385 1.553.364a3.343 3.343 0 001.633-.49 3.342 3.342 0 001.219-1.194c.285-.476.425-.986.42-1.53a2.96 2.96 0 00-.432-1.558 2.94 2.94 0 00-1.149-1.119 2.967 2.967 0 00-1.543-.37c-.555.02-1.097.188-1.627.5-.53.314-.939.709-1.225 1.184a3.056 3.056 0 00-.43 1.537c.002.537.147 1.05.436 1.54z" fill="#E6FB04"/></svg>