<svg  viewBox="0 0 25 25" xmlns="http://www.w3.org/2000/svg">
<path d="M12.625 0.355957C10.2516 0.355957 7.93155 1.05974 5.95816 2.37832C3.98477 3.6969 2.4467 5.57104 1.53845 7.76375C0.630199 9.95647 0.392559 12.3693 0.855582 14.697C1.3186 17.0248 2.46149 19.163 4.13972 20.8412C5.81795 22.5195 7.95615 23.6624 10.2839 24.1254C12.6117 24.5884 15.0245 24.3508 17.2172 23.4425C19.4099 22.5343 21.2841 20.9962 22.6026 19.0228C23.9212 17.0494 24.625 14.7293 24.625 12.356C24.6251 10.7801 24.3148 9.21956 23.7118 7.7636C23.1088 6.30763 22.2249 4.98471 21.1106 3.87038C19.9962 2.75605 18.6733 1.87215 17.2174 1.26914C15.7614 0.666126 14.2009 0.355826 12.625 0.355957ZM16.4404 18.5389C16.3955 18.6509 16.3272 18.752 16.24 18.8354C16.1528 18.9189 16.0488 18.9827 15.9349 19.0226C15.8211 19.0626 15.7 19.0777 15.5798 19.067C15.4596 19.0564 15.3431 19.0201 15.238 18.9607L11.9804 16.4295L9.88963 18.3584C9.84111 18.3942 9.78436 18.4173 9.7246 18.4254C9.66484 18.4336 9.60398 18.4266 9.54763 18.4051L9.94843 14.8189L9.96126 14.8291L9.96945 14.7583C9.96945 14.7583 15.8315 9.42129 16.0703 9.19391C16.312 8.96711 16.2323 8.91791 16.2323 8.91791C16.246 8.64127 15.7984 8.91791 15.7984 8.91791L8.0314 13.9148L4.79682 12.8132C4.79682 12.8132 4.30002 12.635 4.25322 12.2432C4.20402 11.8544 4.813 11.6432 4.813 11.6432L17.6734 6.53414C17.6734 6.53414 18.7306 6.06312 18.7306 6.84316L16.4404 18.5389Z"/>
</svg>
