<?xml version="1.0" standalone="no"?>
<!DOCTYPE svg PUBLIC "-//W3C//DTD SVG 20010904//EN"
 "http://www.w3.org/TR/2001/REC-SVG-20010904/DTD/svg10.dtd">
<svg version="1.0" xmlns="http://www.w3.org/2000/svg"
 width="130.000000pt" height="130.000000pt" viewBox="0 0 130.000000 130.000000"
 preserveAspectRatio="xMidYMid meet">

<g transform="translate(0.000000,130.000000) scale(0.100000,-0.100000)"
fill="#000000" stroke="none">
<path d="M650 1225 c11 -29 4 -32 -22 -8 -19 17 -138 33 -138 18 0 -4 14 -23
31 -42 16 -19 27 -38 24 -42 -4 -3 -13 3 -21 13 -7 11 -15 18 -16 15 -2 -2
-10 -17 -18 -34 -10 -20 -25 -32 -44 -35 -58 -10 -90 -128 -82 -299 4 -66 10
-100 26 -132 12 -23 25 -70 27 -103 8 -89 30 -118 125 -166 44 -22 92 -40 107
-40 42 0 163 63 198 103 35 40 48 79 57 172 8 72 -5 102 -30 70 -9 -11 -25
-39 -36 -63 -11 -24 -26 -46 -34 -49 -8 -3 -37 4 -64 16 -57 25 -117 27 -167
6 -75 -32 -100 -16 -128 80 -20 70 -14 137 16 196 32 64 55 73 160 64 54 -4
89 -3 86 2 -3 5 7 7 24 5 20 -3 37 2 51 14 26 23 57 91 58 123 0 31 -59 87
-125 117 -66 31 -77 31 -65 -1z m42 -652 c33 -30 22 -41 -42 -42 -66 0 -79 15
-38 43 29 21 57 20 80 -1z"/>
<path d="M855 1073 c-3 -21 -13 -48 -20 -59 -12 -19 -11 -29 12 -85 14 -34 27
-88 28 -118 2 -31 3 -57 4 -59 1 -1 9 2 19 7 62 33 51 295 -14 338 -21 13 -22
12 -29 -24z"/>
<path d="M285 343 c-105 -23 -179 -73 -214 -142 -25 -49 -36 -140 -19 -145 7
-3 280 -7 606 -11 l592 -6 0 53 c-1 122 -96 220 -235 242 -37 6 -45 3 -117
-52 -199 -153 -253 -163 -399 -76 -31 19 -84 59 -118 89 -34 30 -65 54 -69 54
-4 -1 -16 -3 -27 -6z"/>
</g>
</svg>
